<?xml version="1.0" encoding="UTF-8"?>
<svg width="102px" height="96px" viewBox="0 0 102 96" version="1.1" xmlns="http://www.w3.org/2000/svg" xmlns:xlink="http://www.w3.org/1999/xlink">
    <title>Group 2</title>
    <g id="content" stroke="none" stroke-width="1" fill="none" fill-rule="evenodd">
        <g id="bits-and-pieces" transform="translate(-195, -291)" fill="#1A1A1A">
            <g id="Group-2" transform="translate(195, 291)">
                <g id="bmd-text" transform="translate(0.001, 72.96)" fill-rule="nonzero">
                    <g id="benchmarque" transform="translate(0.3351, 0)">
                        <path d="M2.00331059,0 L2.00331059,4.25771494 C2.59507441,3.83438574 3.26555913,3.62272114 4.01476473,3.62272114 C4.68253492,3.62272114 5.28922858,3.78689689 5.8348457,4.11524838 C6.38046282,4.4435999 6.80392682,4.90492018 7.10523775,5.49920923 C7.40654874,6.09349836 7.5572042,6.75698548 7.5572042,7.48967066 C7.5572042,8.73794909 7.18531591,9.72164677 6.44153933,10.4407637 C5.6977628,11.1598806 4.6798204,11.5194391 3.38771222,11.5194391 C2.22590066,11.5194391 1.09666325,11.3050608 0,10.8763043 L0,0 L2.00331059,0 Z M2.00331059,9.78541751 C2.43220365,9.93195454 2.93167404,10.0052231 3.50172177,10.0052231 C4.11520169,10.0052231 4.60245678,9.78134704 4.96348701,9.333595 C5.32451723,8.88584296 5.50503237,8.26577419 5.50503237,7.47338879 C5.50503237,6.75698548 5.32315996,6.18576243 4.95941524,5.75971956 C4.59567051,5.3336767 4.11520169,5.12065529 3.51800884,5.12065529 C3.24112852,5.12065529 2.98596429,5.17221458 2.75251617,5.27533326 C2.51906806,5.37845189 2.26933286,5.53855717 2.00331059,5.75564904 L2.00331059,9.78541751 Z" id="Shape"></path>
                        <path d="M12.9742863,3.62272114 C14.0926657,3.62272114 14.9775969,3.98092277 15.62908,4.69732605 C16.2805632,5.41372931 16.6063047,6.40421114 16.6063047,7.66877149 L16.6063047,7.96998649 L11.2234254,7.96998649 C11.3048608,8.6483987 11.5586678,9.1707761 11.9848463,9.53711863 C12.4110249,9.90346127 12.9960024,10.0866326 13.739779,10.0866326 C14.2175333,10.0866326 14.6776432,10.0038663 15.1201088,9.83833369 C15.5625745,9.67280111 16.0199699,9.4217886 16.4922952,9.08529613 L16.4922952,10.5750893 C15.6019349,11.2046558 14.5215587,11.5194391 13.2511666,11.5194391 C12.0513519,11.5194391 11.0714127,11.1585238 10.3113491,10.4366932 C9.55128541,9.71486267 9.17125359,8.75423101 9.17125359,7.55479824 C9.17125359,6.39878383 9.52278307,5.45443409 10.2258419,4.72174888 C10.9289008,3.98906371 11.8450489,3.62272114 12.9742863,3.62272114 Z M14.7251472,6.75698548 C14.6708569,6.20340114 14.5025571,5.77057413 14.2202478,5.45850456 C13.9379384,5.14643494 13.5497631,4.99040013 13.0557217,4.99040013 C12.5508223,4.99040013 12.1450026,5.13965079 11.8382626,5.43815217 C11.5315227,5.73665355 11.337435,6.17626465 11.2559996,6.75698548 L14.7251472,6.75698548 Z" id="Shape"></path>
                        <path d="M23.0006116,3.62272114 C23.8149654,3.62272114 24.4650913,3.89001554 24.9509891,4.42460435 C25.436887,4.95919317 25.6798359,5.66338503 25.6798359,6.53717993 L25.6798359,11.3729021 L23.6846688,11.3729021 L23.6846688,6.74070356 C23.6846688,6.24681949 23.5665875,5.8560541 23.3304248,5.56840728 C23.0942622,5.28076057 22.7725924,5.13693716 22.3654155,5.13693716 C22.055961,5.13693716 21.7655081,5.22784439 21.4940568,5.40965885 C21.2226055,5.5914733 20.9240091,5.89404514 20.5982675,6.31737438 L20.5982675,11.3729021 L18.5949569,11.3729021 L18.5949569,3.76925817 L20.5982675,3.76925817 L20.5982675,4.83572213 C20.9674413,4.40153833 21.3461159,4.09082555 21.7342912,3.90358378 C22.1224666,3.71634201 22.5445733,3.62272114 23.0006116,3.62272114 Z" id="Path"></path>
                        <path d="M31.6832527,3.62272114 C32.568184,3.62272114 33.3689654,3.793681 34.0855968,4.13560074 L34.0855968,5.83705855 C33.3743943,5.42458393 32.7011952,5.21834662 32.0659992,5.21834662 C31.3819419,5.21834662 30.8227521,5.43136802 30.38843,5.85741089 C29.954108,6.28345375 29.7369469,6.86010411 29.7369469,7.58736198 C29.7369469,8.29833798 29.9554652,8.87091788 30.392502,9.30510168 C30.8295385,9.73928553 31.4118014,9.9563774 32.139291,9.9563774 C32.6821935,9.9563774 33.377109,9.77727657 34.2240369,9.41907497 L34.2240369,11.0391232 C33.4368281,11.3593338 32.6251887,11.5194391 31.7891187,11.5194391 C30.5567299,11.5194391 29.5564319,11.1666648 28.7882246,10.4611161 C28.0200176,9.7555674 27.6359139,8.81935859 27.6359139,7.65248957 C27.6359139,6.44220224 28.0118741,5.46800233 28.763794,4.72988984 C29.5157142,3.99177738 30.4888672,3.62272114 31.6832527,3.62272114 Z" id="Path"></path>
                        <path d="M38.1427078,0 L38.1427078,4.83572213 L38.191569,4.83572213 C38.8376233,4.02705479 39.6166886,3.62272114 40.5287649,3.62272114 C41.3376899,3.62272114 41.9891729,3.8886587 42.4832142,4.42053388 C42.9772555,4.95240903 43.2242762,5.64710311 43.2242762,6.50461614 L43.2242762,11.3729021 L41.2291092,11.3729021 L41.2291092,6.88724065 C41.2291092,6.37707466 41.1083134,5.97138418 40.8667217,5.67016912 C40.6251301,5.36895412 40.2953167,5.21834662 39.8772817,5.21834662 C39.5732562,5.21834662 39.2868752,5.30518338 39.0181383,5.4788569 C38.7494017,5.65253041 38.4575913,5.94017718 38.1427078,6.34179718 L38.1427078,11.3729021 L36.1393973,11.3729021 L36.1393973,0 L38.1427078,0 Z" id="Path"></path>
                        <path d="M49.9850424,3.62272114 C50.5713772,3.62272114 51.0667757,3.7597604 51.4712383,4.03383892 C51.8757008,4.30791745 52.1783689,4.67561686 52.3792426,5.13693716 C52.8081361,4.61048929 53.2356715,4.226508 53.66185,3.98499324 C54.0880285,3.74347851 54.5562821,3.62272114 55.0666103,3.62272114 C55.8701064,3.62272114 56.5188752,3.88458823 57.0129162,4.40832247 C57.5069578,4.93205667 57.7539786,5.63082124 57.7539786,6.50461614 L57.7539786,11.3729021 L55.7506679,11.3729021 L55.7506679,6.83839494 C55.7506679,6.31194707 55.6380158,5.89675882 55.412711,5.59283014 C55.1874068,5.28890151 54.8603077,5.13693716 54.4314148,5.13693716 C53.8179347,5.13693716 53.2288852,5.53041624 52.6642666,6.31737438 L52.6642666,11.3729021 L50.6690997,11.3729021 L50.6690997,6.80583115 C50.6690997,6.28481059 50.549661,5.87640649 50.3107838,5.58061874 C50.0719069,5.28483104 49.7515943,5.13693716 49.3498463,5.13693716 C49.0241047,5.13693716 48.7255083,5.23055802 48.4540569,5.41779978 C48.1826058,5.60504159 47.8921527,5.90489976 47.5826983,6.31737438 L47.5826983,11.3729021 L45.5793878,11.3729021 L45.5793878,3.76925817 L47.5826983,3.76925817 L47.5826983,4.83572213 C47.946443,4.42324752 48.3156168,4.11796205 48.6902197,3.91986567 C49.0648224,3.72176932 49.49643,3.62272114 49.9850424,3.62272114 Z" id="Path"></path>
                        <path d="M62.8453192,3.62272114 C63.8225435,3.62272114 64.5690347,3.83031527 65.0847923,4.24550353 C65.6005499,4.6606918 65.8584285,5.24005579 65.8584285,5.98359558 L65.8584285,9.70400806 C65.8584285,9.99165482 65.9751525,10.1354782 66.2086006,10.1354782 C66.306323,10.1354782 66.4434061,10.0934167 66.6198494,10.0092936 C66.7962927,9.92517045 66.9442335,9.82883592 67.0636725,9.72028993 L67.0636725,10.8763043 C66.3633278,11.3050608 65.7227029,11.5194391 65.1417971,11.5194391 C64.7834817,11.5194391 64.507958,11.4597389 64.3152276,11.3403383 C64.1224972,11.2209377 63.988129,11.0092731 63.9121226,10.7053444 C63.1466298,11.2480742 62.378423,11.5194391 61.6075013,11.5194391 C61.0591699,11.5194391 60.5882014,11.334911 60.1945972,10.9658547 C59.800993,10.5967985 59.6041907,10.1544738 59.6041907,9.63888047 C59.6041907,8.9821775 59.7996355,8.46387057 60.1905253,8.08395974 C60.581415,7.70404891 61.2654725,7.37298374 62.2426974,7.09076428 L63.8632617,6.61858938 L63.8632617,6.26852872 C63.8632617,5.52498893 63.4126522,5.15321903 62.5114342,5.15321903 C62.049967,5.15321903 61.5912142,5.25905134 61.1351758,5.47071596 C60.6791374,5.68238058 60.2638172,5.99445015 59.8892146,6.40692477 L59.8892146,4.60777565 C60.7198556,3.95107264 61.7052238,3.62272114 62.8453192,3.62272114 Z M61.6237885,9.33766547 C61.6237885,9.61445767 61.7120101,9.83697685 61.8884534,10.0052231 C62.0648967,10.1734693 62.283415,10.2575924 62.544008,10.2575924 C62.9837592,10.2575924 63.4235104,10.0567824 63.8632617,9.6551624 L63.8632617,7.65248957 C63.304072,7.84244501 62.8656777,8.02154578 62.5480799,8.18979204 C62.2304816,8.35803826 61.9970336,8.52899815 61.8477357,8.70267167 C61.6984374,8.87634519 61.6237885,9.0880098 61.6237885,9.33766547 Z" id="Shape"></path>
                        <path d="M72.9286488,3.62272114 C73.1946712,3.62272114 73.4566221,3.68242141 73.7145007,3.80182194 C73.9723792,3.9212225 74.2723329,4.12203252 74.6143617,4.40425199 L73.8977303,6.15455542 C73.3168246,5.72037163 72.8499285,5.50327975 72.4970414,5.50327975 C72.1875869,5.50327975 71.8822044,5.61860983 71.5808933,5.84926995 C71.2795821,6.07993012 71.0379907,6.38521559 70.8561186,6.76512642 C70.6742459,7.14503725 70.5833098,7.52494808 70.5833098,7.90485891 L70.5833098,11.3729021 L68.5799992,11.3729021 L68.5799992,3.76925817 L70.5833098,3.76925817 L70.5833098,5.70680343 L70.6158842,5.70680343 C70.979629,4.97411822 71.3460882,4.4435999 71.7152614,4.11524838 C72.0844356,3.78689689 72.4888981,3.62272114 72.9286488,3.62272114 Z" id="Path"></path>
                        <path d="M80.7725057,11.2100831 C80.1861711,11.4163204 79.6188376,11.5194391 79.0705062,11.5194391 C78.3810198,11.5194391 77.7390373,11.3525497 77.1445589,11.0187709 C76.550081,10.6849921 76.0831848,10.2236718 75.7438705,9.63481001 C75.4045562,9.04594824 75.2348992,8.39602936 75.2348992,7.68505336 C75.2348992,6.88724065 75.4004848,6.19254652 75.7316553,5.60097107 C76.0628258,5.00939566 76.5324363,4.55621633 77.1404875,4.24143305 C77.7485386,3.92664981 78.4515973,3.76925817 79.2496639,3.76925817 L82.7676731,3.76925817 L82.7676731,15.2072878 L80.7725057,15.2072878 L80.7725057,11.2100831 Z M79.7219894,5.307897 C78.0987107,5.307897 77.2870709,6.12470531 77.2870709,7.75832187 C77.2870709,8.44216139 77.4865877,8.99031843 77.8856212,9.40279305 C78.2846548,9.81526767 78.8180565,10.021505 79.4858269,10.021505 C79.931007,10.021505 80.3598999,9.91567267 80.7725057,9.70400806 L80.7725057,5.307897 L79.7219894,5.307897 Z" id="Shape"></path>
                        <path d="M87.1342385,3.76925817 L87.1342385,8.47472518 C87.1342385,8.96860925 87.2577489,9.34444962 87.5047697,9.60224622 C87.7517899,9.86004287 88.078889,9.98894119 88.4860659,9.98894119 C88.8226653,9.98894119 89.1456925,9.88582251 89.4551469,9.67958525 C89.7646019,9.47334789 90.0143371,9.1829875 90.2043526,8.80850398 L90.2043526,3.76925817 L92.2076633,3.76925817 L92.2076633,11.3729021 L90.2043526,11.3729021 L90.2043526,10.3390019 C89.4822924,11.12596 88.7005124,11.5194391 87.8590137,11.5194391 C87.0446594,11.5194391 86.3877473,11.2535015 85.8882773,10.7216264 C85.3888064,10.1897512 85.1390711,9.49505712 85.1390711,8.63754409 L85.1390711,3.76925817 L87.1342385,3.76925817 Z" id="Path"></path>
                        <path d="M98.0319224,3.62272114 C99.1503018,3.62272114 100.035233,3.98092277 100.686716,4.69732605 C101.3382,5.41372931 101.663941,6.40421114 101.663941,7.66877149 L101.663941,7.96998649 L96.2810614,7.96998649 C96.3624967,8.6483987 96.6163038,9.1707761 97.0424823,9.53711863 C97.4686608,9.90346127 98.0536384,10.0866326 98.7974152,10.0866326 C99.2751691,10.0866326 99.7352794,10.0038663 100.177745,9.83833369 C100.620211,9.67280111 101.077606,9.4217886 101.549931,9.08529613 L101.549931,10.5750893 C100.659571,11.2046558 99.5791947,11.5194391 98.3088026,11.5194391 C97.1089879,11.5194391 96.1290486,11.1585238 95.3689852,10.4366932 C94.6089217,9.71486267 94.2288898,8.75423101 94.2288898,7.55479824 C94.2288898,6.39878383 94.5804188,5.45443409 95.283478,4.72174888 C95.9865366,3.98906371 96.9026848,3.62272114 98.0319224,3.62272114 Z M99.7827834,6.75698548 C99.7284931,6.20340114 99.5601931,5.77057413 99.2778836,5.45850456 C98.9955745,5.14643494 98.6073992,4.99040013 98.1133577,4.99040013 C97.6084584,4.99040013 97.2026384,5.13965079 96.8958984,5.43815217 C96.5891589,5.73665355 96.395071,6.17626465 96.3136357,6.75698548 L99.7827834,6.75698548 Z" id="Shape"></path>
                    </g>
                    <g id="designs-limited" transform="translate(0, 17.2399)">
                        <path d="M0,5.7271238 L0,0.0729569908 L1.90964923,0.0729569908 C2.67999606,0.0729569908 3.28951609,0.188472227 3.73820933,0.419502698 C4.18690257,0.65053317 4.54369477,0.9903236 4.80858596,1.43887399 C5.07347715,1.88742438 5.20592277,2.37650643 5.20592277,2.90612014 C5.20592277,3.28441565 5.13294253,3.64649848 4.98698208,3.99236867 C4.84102161,4.33823885 4.63289283,4.64222631 4.36259571,4.90433107 C4.08689263,5.17454212 3.76659052,5.37855149 3.40168939,5.51635914 C3.18815468,5.60012457 2.99218924,5.65619336 2.81379315,5.68456556 C2.63539703,5.7129377 2.29482264,5.7271238 1.79206998,5.7271238 L0,5.7271238 Z M1.82450564,0.794420567 L0.810891395,0.794420567 L0.810891395,5.00566022 L1.84883238,5.00566022 C2.25427807,5.00566022 2.56917423,4.97796358 2.79352085,4.9225703 C3.01786747,4.86717703 3.20504822,4.79692215 3.35506315,4.71180568 C3.50507805,4.62668918 3.64225385,4.52198239 3.76659052,4.3976853 C4.16663027,3.99236867 4.36665017,3.48031869 4.36665017,2.86153531 C4.36665017,2.25356039 4.16122435,1.75772306 3.75037268,1.37402333 C3.59900631,1.23081146 3.42534039,1.11326964 3.22937498,1.02139788 C3.03340955,0.929526109 2.84758027,0.868728617 2.67188714,0.839005396 C2.49619401,0.80928218 2.2137335,0.794420567 1.82450564,0.794420567 Z" id="Shape"></path>
                        <polygon id="Path" points="8.90434433 0.0729569908 12.1154742 0.0729569908 12.1154742 0.794420567 9.71523576 0.794420567 9.71523576 2.52106936 12.0343851 2.52106936 12.0343851 3.24658609 9.71523576 3.24658609 9.71523576 5.00566022 12.192509 5.00566022 12.192509 5.7271238 8.90434433 5.7271238"></polygon>
                        <path d="M17.1437577,3.36007474 L16.5274803,2.98718346 C16.1409553,2.75209982 15.865928,2.52039383 15.7023983,2.29206547 C15.5388685,2.06373711 15.4571036,1.80095683 15.4571036,1.50372465 C15.4571036,1.05787637 15.6118487,0.695793523 15.921339,0.417476114 C16.2308292,0.139158705 16.6328961,0 17.1275399,0 C17.6005599,0 18.0343868,0.132403428 18.4290206,0.397210285 L18.4290206,1.31727901 C18.0208719,0.925472941 17.5816391,0.729569908 17.111322,0.729569908 C16.8464309,0.729569908 16.6288417,0.791042929 16.4585545,0.913988971 C16.2882673,1.03693501 16.2031237,1.19433296 16.2031237,1.38618283 C16.2031237,1.55641581 16.265292,1.71584034 16.3896287,1.86445643 C16.5139654,2.01307253 16.7153368,2.1684439 16.9937428,2.33057055 L17.6140747,2.69535551 C18.3060354,3.10607635 18.6520157,3.63028583 18.6520157,4.26798397 C18.6520157,4.72193857 18.4999736,5.09077671 18.1958893,5.37449836 C17.891805,5.65821997 17.4964955,5.80008081 17.0099607,5.80008081 C16.4504456,5.80008081 15.9409355,5.62849672 15.4814304,5.28532869 L15.4814304,4.25582446 C15.9193117,4.80975717 16.4261189,5.08672354 17.0018517,5.08672354 C17.255931,5.08672354 17.4674385,5.01579314 17.6363742,4.8739323 C17.80531,4.73207149 17.8897778,4.55440771 17.8897778,4.34094096 C17.8897778,3.99507077 17.6411044,3.66811539 17.1437577,3.36007474 Z" id="Path"></path>
                        <polygon id="Path" points="22.2369125 0.0729569908 23.0478039 0.0729569908 23.0478039 5.73523011 22.2369125 5.73523011"></polygon>
                        <path d="M30.0506079,2.9466518 L31.9521483,2.9466518 L31.9521483,5.34612616 C31.2547817,5.64876261 30.5628211,5.80008081 29.8762662,5.80008081 C28.9383352,5.80008081 28.1889365,5.52649206 27.6280698,4.97931464 C27.0672033,4.4321372 26.7867702,3.75728503 26.7867702,2.95475814 C26.7867702,2.10899747 27.0773395,1.40509761 27.6584782,0.843058564 C28.239617,0.28101952 28.9680679,0 29.8438305,0 C30.1627813,0 30.4655139,0.0344519123 30.7520291,0.103355737 C31.038544,0.172259562 31.4007421,0.29858324 31.8386234,0.482326774 L31.8386234,1.30917267 C31.1628805,0.917366609 30.4925438,0.721463576 29.8276129,0.721463576 C29.2086325,0.721463576 28.686959,0.932228217 28.2625923,1.3537575 C27.8382259,1.77528678 27.6260426,2.29274099 27.6260426,2.90612014 C27.6260426,3.54922251 27.8382259,4.07478306 28.2625923,4.48280179 C28.686959,4.8908205 29.2329591,5.09482987 29.9005931,5.09482987 C30.2249496,5.09482987 30.612826,5.02052182 31.0642223,4.87190574 L31.1412569,4.84758673 L31.1412569,3.66811539 L30.0506079,3.66811539 L30.0506079,2.9466518 Z" id="Path"></path>
                        <polygon id="Path" points="40.3213043 0.0729569908 41.0916511 0.0729569908 41.0916511 5.73523011 40.3942845 5.73523011 36.6074217 1.3780765 36.6074217 5.73523011 35.8451839 5.73523011 35.8451839 0.0729569908 36.5020058 0.0729569908 40.3213043 4.46658911"></polygon>
                        <path d="M46.3915833,3.36007474 L45.7753056,2.98718346 C45.3887808,2.75209982 45.1137534,2.52039383 44.9502237,2.29206547 C44.7866939,2.06373711 44.7049292,1.80095683 44.7049292,1.50372465 C44.7049292,1.05787637 44.8596741,0.695793523 45.1691644,0.417476114 C45.4786545,0.139158705 45.8807217,0 46.3753653,0 C46.8483853,0 47.2822122,0.132403428 47.676846,0.397210285 L47.676846,1.31727901 C47.2686973,0.925472941 46.8294646,0.729569908 46.3591476,0.729569908 C46.0942564,0.729569908 45.8766671,0.791042929 45.70638,0.913988971 C45.5360926,1.03693501 45.4509491,1.19433296 45.4509491,1.38618283 C45.4509491,1.55641581 45.5131176,1.71584034 45.6374541,1.86445643 C45.7617909,2.01307253 45.9631622,2.1684439 46.2415682,2.33057055 L46.8619002,2.69535551 C47.5538608,3.10607635 47.8998413,3.63028583 47.8998413,4.26798397 C47.8998413,4.72193857 47.747799,5.09077671 47.4437148,5.37449836 C47.1396306,5.65821997 46.7443211,5.80008081 46.2577861,5.80008081 C45.698271,5.80008081 45.1887608,5.62849672 44.7292558,5.28532869 L44.7292558,4.25582446 C45.1671372,4.80975717 45.6739444,5.08672354 46.2496772,5.08672354 C46.5037564,5.08672354 46.715264,5.01579314 46.8841997,4.8739323 C47.0531354,4.73207149 47.1376032,4.55440771 47.1376032,4.34094096 C47.1376032,3.99507077 46.8889298,3.66811539 46.3915833,3.36007474 Z" id="Path"></path>
                        <polygon id="Path" points="56.4684224 0.0729569908 57.2793136 0.0729569908 57.2793136 4.99755387 59.829567 4.99755387 59.829567 5.73523011 56.4684224 5.73523011"></polygon>
                        <polygon id="Path" points="63.2320137 0.0729569908 64.0429049 0.0729569908 64.0429049 5.73523011 63.2320137 5.73523011"></polygon>
                        <polygon id="Path" points="72.4931501 0.0729569908 73.2472791 0.0729569908 73.2472791 5.73523011 72.4323333 5.73523011 72.4323333 1.3294385 70.6889167 3.51814822 70.538902 3.51814822 68.7792678 1.3294385 68.7792678 5.73523011 67.968376 5.73523011 67.968376 0.0729569908 68.7306141 0.0729569908 70.6159364 2.39947437"></polygon>
                        <polygon id="Path" points="77.1605871 0.0729569908 77.9714779 0.0729569908 77.9714779 5.73523011 77.1605871 5.73523011"></polygon>
                        <polygon id="Path" points="81.4306868 0.0648506586 86.1622379 0.0648506586 86.1622379 0.786314236 84.1877177 0.786314236 84.1877177 5.73523011 83.3727719 5.73523011 83.3727719 0.786314236 81.4306868 0.786314236"></polygon>
                        <polygon id="Path" points="89.6133377 0.0729569908 92.8244677 0.0729569908 92.8244677 0.794420567 90.424229 0.794420567 90.424229 2.52106936 92.7433788 2.52106936 92.7433788 3.24658609 90.424229 3.24658609 90.424229 5.00566022 92.9015025 5.00566022 92.9015025 5.7271238 89.6133377 5.7271238"></polygon>
                        <path d="M96.4580179,5.7271238 L96.4580179,0.0729569908 L98.3676673,0.0729569908 C99.1380139,0.0729569908 99.7475341,0.188472227 100.196227,0.419502698 C100.644921,0.65053317 101.001713,0.9903236 101.266604,1.43887399 C101.531495,1.88742438 101.663941,2.37650643 101.663941,2.90612014 C101.663941,3.28441565 101.59096,3.64649848 101.445,3.99236867 C101.299039,4.33823885 101.090911,4.64222631 100.820614,4.90433107 C100.54491,5.17454212 100.224608,5.37855149 99.8597078,5.51635914 C99.6461726,5.60012457 99.4502073,5.65619336 99.271811,5.68456556 C99.0934152,5.7129377 98.7528406,5.7271238 98.2500882,5.7271238 L96.4580179,5.7271238 Z M98.2825234,0.794420567 L97.2689097,0.794420567 L97.2689097,5.00566022 L98.3068505,5.00566022 C98.7122959,5.00566022 99.027192,4.97796358 99.2515389,4.9225703 C99.4758853,4.86717703 99.6630661,4.79692215 99.8130813,4.71180568 C99.963096,4.62668918 100.100272,4.52198239 100.224608,4.3976853 C100.624648,3.99236867 100.824668,3.48031869 100.824668,2.86153531 C100.824668,2.25356039 100.619243,1.75772306 100.208391,1.37402333 C100.057024,1.23081146 99.8833584,1.11326964 99.6873932,1.02139788 C99.4914274,0.929526109 99.3055985,0.868728617 99.1299053,0.839005396 C98.9542122,0.80928218 98.6717517,0.794420567 98.2825234,0.794420567 Z" id="Shape"></path>
                    </g>
                </g>
                <path d="M102,0 L102,67.2 L20.7966384,67.2002759 C21.2461071,66.9283637 21.719945,66.6225123 22.2271501,66.2812033 C24.4264626,64.8013276 27.9071864,59.1032715 29.4091374,54.5223766 C30.5932071,50.9120296 33.0723768,48.4295343 36.7089994,47.2108131 C38.3414987,46.6641488 39.5911287,46.3482548 39.966496,45.5598888 C40.3278167,44.8010245 39.8568412,43.5867986 39.2611753,42.1961878 C38.3653281,40.1054243 39.7296944,38.1118247 41.0498903,34.9527711 C42.9085071,30.5062714 41.1281574,27.3432143 37.0633838,23.0334008 C33.9849546,19.7697327 31.9164449,19.0771387 28.7444766,20.2477524 C27.371047,20.7540257 25.2918905,22.1667038 24.2538333,23.2983734 C20.4346952,27.4623375 17.3342121,28.0006823 13.2717199,25.205107 C9.95754145,22.9249683 7.84720528,22.9455857 5.19692723,25.281468 C4.1619119,26.1939816 3.45998747,26.3467036 0.924542132,26.2084902 C0.597517248,26.1907048 0.289314248,26.1994598 2.13704109e-13,26.2321664 L0.00098542709,0 L102,0 Z M19.6429785,36.2950456 C20.1369769,35.3257104 20.4158761,35.3257104 20.6869383,36.2950456 C21.2099465,38.1653548 20.3816576,42.0892956 20.6869383,47.6218344 C20.7679329,49.0896826 21.5354129,49.5263484 21.4215915,50.9393445 C21.3104731,52.3187858 20.1480861,54.7727479 19.4977901,55.7308563 C18.3035158,57.4904308 18.4814039,59.0814782 15.4887064,58.2425113 C12.4960089,57.4035444 15.1078531,56.1714827 15.8348244,53.589353 C16.5617957,51.0072233 16.2305433,50.3035405 16.8379287,47.3124647 C17.1740366,45.657298 18.1136146,43.2657021 18.6187381,40.7947513 C19.0264306,38.8004111 19.1371238,37.2876457 19.6429785,36.2950456 Z M0.000828449463,35.1602211 C0.217812473,35.2835374 0.445604058,35.398701 0.684229976,35.5046755 C3.75277285,36.8677189 4.6759974,39.3784678 4.38017009,45.5598888 C4.05041794,52.4628131 3.68715399,53.9232161 0.00183211923,57.8005508 Z M96.9523072,18.9647052 C95.9207503,18.3540224 93.6586176,18.0746349 92.555657,18.4219608 C90.6543413,19.0219567 90.2669378,20.7066781 91.4815617,23.0975014 C92.3323303,24.7715358 92.9293875,32.1699586 92.3665129,34.0584954 C91.7102058,36.2600071 90.1677195,35.7317664 88.1539808,32.8340762 C85.1755314,28.5493726 82.9498602,29.1295214 81.1396982,34.6630714 C81.1109848,34.7508848 81.0827018,34.8370964 81.0548227,34.9217259 L80.8921808,35.4106764 C79.5209237,39.4864591 79.0976005,39.3914236 75.8772759,37.9097405 C71.7031928,35.9891429 68.8442826,37.4706858 64.4529497,43.775223 C61.9804037,47.3248171 62.6553339,45.7698659 59.0167793,42.7538559 C54.4302254,38.9531185 52.5494193,39.3867033 45.6490789,45.837041 C43.1856483,48.1408421 41.2566039,49.0451677 39.9538646,49.7337126 C38.4984427,50.5024097 37.7889626,51.0940087 37.3628187,51.8940032 L36.9529183,52.6654811 C36.8496113,52.8599164 36.8918339,53.0997041 37.0553418,53.2471578 L37.7692126,53.8909362 C39.9880473,55.8909225 41.7294668,55.7911715 47.7418176,50.189683 C53.0196209,45.2729227 54.0838411,45.0225427 57.187627,47.9690875 C63.5752274,54.0339316 63.8953925,55.1705651 68.7386962,46.8126068 C70.5108774,43.7546124 72.4805257,41.4645517 75.3214848,43.775223 C78.7845685,46.5919977 82.0051299,47.3843587 83.8061765,42.7538559 C84.7260699,40.3897499 85.2560506,40.3477654 86.6028475,40.8164645 C87.4543756,41.1126457 88.0833367,41.6561535 88.8178841,42.7301919 C91.219786,46.240855 92.8678587,45.5752107 95.2697605,40.5622678 C98.0818543,34.696659 99.2030457,20.2967572 96.9523072,18.9647052 Z M97.1726636,13.0103818 C97.0073982,11.0220685 93.8422224,10.1326001 89.1561477,10.7569091 C85.1181877,11.2948693 82.7366899,11.7082734 81.2622481,12.1277907 C80.4100268,12.3700257 78.4550205,12.7826657 76.9173665,13.0440043 C75.3804742,13.3061071 73.5298059,13.7325017 72.8047705,13.9915479 C72.0804966,14.2505941 70.1848945,14.7304791 68.5931675,15.0575345 C67.0014405,15.3845899 64.6709694,15.9959084 63.4143429,16.4154257 C62.1577163,16.8357071 60.1014183,17.4332709 58.8447917,17.7427509 C56.5562082,18.3066922 52.6362949,19.4001881 48.6394608,20.5892026 C47.4666093,20.9384182 45.8215709,21.4114259 44.9838199,21.6414345 C40.8925484,22.7624397 40.4759576,23.1238818 41.1682446,24.951724 C41.5201001,25.8793998 42.5330172,25.9833239 44.4880236,25.2910058 C45.0586545,25.0890049 46.689525,24.6836308 48.3970211,24.3126738 L48.9376303,24.1969508 C49.1179175,24.1589428 49.2979066,24.1215934 49.4764502,24.0851801 C51.5289403,23.6664269 53.7961993,23.114712 54.5136188,22.8587224 C55.2310383,22.6027328 57.0131633,22.2397624 58.4738965,22.0525462 C59.9346297,21.8645657 62.1577163,21.3846807 63.4143429,20.9857954 C64.6709694,20.5869101 66.7958107,20.1093176 68.1362124,19.9243937 C69.4766141,19.7394699 71.6014554,19.2618773 72.8580819,18.862992 C75.4810043,18.0293065 76.1199799,17.8925239 79.2554535,17.4905821 C80.5120801,17.3293468 82.9110945,16.9900651 84.5865966,16.7356037 C86.2620987,16.4811424 89.2277374,16.2129264 91.1758893,16.1403324 C92.5100648,16.0904539 93.9192347,16.8895706 94.7648383,16.7356037 C96.9636158,16.335252 97.3063265,14.6219276 97.1726636,13.0103818 Z" id="Combined-Shape"></path>
            </g>
        </g>
    </g>
</svg>