<?xml version="1.0" encoding="UTF-8"?>
<svg width="372px" height="305px" viewBox="0 0 372 305" version="1.1" xmlns="http://www.w3.org/2000/svg" xmlns:xlink="http://www.w3.org/1999/xlink">
    <title>bmd-final-logo-dark</title>
    <g id="logo" stroke="none" stroke-width="1" fill="none" fill-rule="evenodd">
        <g id="dark" transform="translate(-47, -503)" fill="#050E0F">
            <g id="bmd-final-logo-dark" transform="translate(47, 503)">
                <g id="benchmarque" transform="translate(0, 217.3563)" fill-rule="nonzero">
                    <path d="M7.33034285,0 L7.33034285,15.704546 C9.49567442,14.1430998 11.9490548,13.3623767 14.6904839,13.3623767 C17.1339315,13.3623767 19.353893,13.9679375 21.3503685,15.1790593 C23.3468441,16.3901811 24.8963473,18.0917571 25.9988785,20.2837873 C27.1014099,22.4758178 27.6526755,24.9230845 27.6526755,27.6255877 C27.6526755,32.2298522 26.2918937,35.8582129 23.57033,38.5106697 C20.8487665,41.1631265 17.1239987,42.489355 12.3960269,42.489355 C8.14482539,42.489355 4.01281641,41.6986224 0,40.1171577 L0,0 L7.33034285,0 Z M7.33034285,36.0934307 C8.89971165,36.6339314 10.727331,36.9041819 12.8132009,36.9041819 C15.0579942,36.9041819 16.8409164,36.0784168 18.1619673,34.4268872 C19.4830182,32.7753575 20.1435438,30.488239 20.1435438,27.5655321 C20.1435438,24.9230845 19.4780518,22.816133 18.1470683,21.2446775 C16.8160846,19.6732219 15.0579942,18.8874943 12.8727972,18.8874943 C11.8596604,18.8874943 10.9259852,19.0776703 10.0717719,19.4580227 C9.21755849,19.8383749 8.30374881,20.4289218 7.33034285,21.2296634 L7.33034285,36.0934307 Z" id="Shape"></path>
                    <path d="M47.4743993,13.3623767 C51.5666775,13.3623767 54.8047421,14.6836004 57.1885935,17.3260479 C59.5724448,19.9684953 60.7643705,23.6218793 60.7643705,28.2861996 L60.7643705,29.3972286 L41.0677988,29.3972286 C41.3657802,31.8995463 42.294489,33.826331 43.8539251,35.1775824 C45.4133612,36.5288342 47.553861,37.2044599 50.2754247,37.2044599 C52.0235822,37.2044599 53.7071773,36.8991772 55.3262096,36.2886116 C56.9452421,35.6780461 58.6189043,34.7521885 60.3471966,33.5110388 L60.3471966,39.0061286 C57.0892663,41.3282794 53.1360462,42.489355 48.487536,42.489355 C44.0972767,42.489355 40.5115668,41.1581218 37.7304069,38.4956558 C34.949247,35.8331898 33.5586671,32.2899079 33.5586671,27.8658102 C33.5586671,23.6018607 34.8449537,20.1186346 37.4175265,17.4161313 C39.9900995,14.7136282 43.3423902,13.3623767 47.4743993,13.3623767 Z M53.8809998,24.9230845 C53.6823454,22.8811933 53.0665172,21.2847144 52.033515,20.1336485 C51.0005126,18.9825823 49.5801346,18.4070492 47.7723807,18.4070492 C45.924896,18.4070492 44.4399552,18.957559 43.3175585,20.0585788 C42.1951619,21.1595987 41.4849728,22.7811006 41.1869914,24.9230845 L53.8809998,24.9230845 Z" id="Shape"></path>
                    <path d="M84.1618714,13.3623767 C87.1416853,13.3623767 89.5205705,14.3482898 91.2985263,16.3201162 C93.0764823,18.2919426 93.96546,20.8893484 93.96546,24.1123336 L93.96546,41.9488543 L86.6649152,41.9488543 L86.6649152,24.8630288 C86.6649152,23.0413415 86.2328422,21.6000066 85.3686959,20.5390237 C84.5045499,19.4780412 83.3275233,18.9475498 81.8376162,18.9475498 C80.7052869,18.9475498 79.6424864,19.2828604 78.6492152,19.9534815 C77.6559437,20.6241025 76.5633452,21.7401363 75.3714195,23.3015826 L75.3714195,41.9488543 L68.0410765,41.9488543 L68.0410765,13.9028773 L75.3714195,13.9028773 L75.3714195,17.8365207 C76.7222685,16.2350374 78.1078822,15.0889759 79.5282603,14.3983362 C80.9486383,13.7076965 82.4931754,13.3623767 84.1618714,13.3623767 Z" id="Path"></path>
                    <path d="M115.93265,13.3623767 C119.170714,13.3623767 122.100865,13.9929607 124.723102,15.2541288 L124.723102,21.5299417 C122.12073,20.0085325 119.657418,19.2478279 117.333163,19.2478279 C114.830119,19.2478279 112.783979,20.0335556 111.194745,21.6050111 C109.605511,23.1764667 108.810894,25.3034367 108.810894,27.9859213 C108.810894,30.6083503 109.610477,32.7203065 111.209645,34.3217898 C112.808811,35.9232733 114.939378,36.7240149 117.601346,36.7240149 C119.587888,36.7240149 122.130664,36.063403 125.22967,34.7421793 L125.22967,40.7177138 C122.349183,41.898808 119.379301,42.489355 116.320026,42.489355 C111.810574,42.489355 108.150369,41.1881497 105.33941,38.5857393 C102.528453,35.9833288 101.122973,32.5301305 101.122973,28.2261438 C101.122973,23.7620091 102.498655,20.1686809 105.250016,17.4461592 C108.001378,14.7236375 111.562256,13.3623767 115.93265,13.3623767 Z" id="Path"></path>
                    <path d="M139.568535,0 L139.568535,17.8365207 L139.747324,17.8365207 C142.111311,14.8537579 144.962,13.3623767 148.299391,13.3623767 C151.259341,13.3623767 153.643192,14.3432851 155.450945,16.3051023 C157.258699,18.2669193 158.162576,20.8292926 158.162576,23.9922223 L158.162576,41.9488543 L150.862032,41.9488543 L150.862032,25.4035296 C150.862032,23.5217866 150.420026,22.0254007 149.536014,20.9143714 C148.652003,19.8033424 147.445178,19.2478279 145.91554,19.2478279 C144.803076,19.2478279 143.755175,19.5681246 142.771836,20.2087179 C141.788498,20.8493112 140.72073,21.9102939 139.568535,23.3916659 L139.568535,41.9488543 L132.238193,41.9488543 L132.238193,0 L139.568535,0 Z" id="Path"></path>
                    <path d="M182.900994,13.3623767 C185.04646,13.3623767 186.85918,13.8678448 188.339155,14.8787812 C189.819129,15.8897175 190.926626,17.2459737 191.661647,18.9475498 C193.231017,17.0057512 194.795418,15.5894394 196.354854,14.6986143 C197.91429,13.8077892 199.627683,13.3623767 201.495033,13.3623767 C204.435117,13.3623767 206.809036,14.3282712 208.616789,16.2600606 C210.424543,18.1918498 211.328421,20.7692371 211.328421,23.9922223 L211.328421,41.9488543 L203.998078,41.9488543 L203.998078,25.2233626 C203.998078,23.281564 203.585871,21.7501457 202.761455,20.6291072 C201.937041,19.508069 200.740148,18.9475498 199.170779,18.9475498 C196.925986,18.9475498 194.770586,20.3988941 192.704582,23.3015826 L192.704582,41.9488543 L185.404038,41.9488543 L185.404038,25.1032513 C185.404038,23.1814713 184.966998,21.6750762 184.092919,20.5840656 C183.218841,19.4930551 182.04678,18.9475498 180.576739,18.9475498 C179.384813,18.9475498 178.292214,19.2928696 177.298943,19.9835092 C176.305672,20.6741491 175.242871,21.7801734 174.110542,23.3015826 L174.110542,41.9488543 L166.780199,41.9488543 L166.780199,13.9028773 L174.110542,13.9028773 L174.110542,17.8365207 C175.441525,16.3151115 176.792374,15.1890686 178.163089,14.4583918 C179.533803,13.727715 181.113105,13.3623767 182.900994,13.3623767 Z" id="Path"></path>
                    <path d="M229.958219,13.3623767 C233.533995,13.3623767 236.265492,14.1280859 238.152708,15.6595043 C240.039924,17.1909228 240.983531,19.327902 240.983531,22.0704423 L240.983531,35.7931526 C240.983531,36.8541353 241.410638,37.3846268 242.264851,37.3846268 C242.622428,37.3846268 243.124031,37.229483 243.769657,36.9191957 C244.415283,36.6089083 244.956616,36.2535792 245.393657,35.8532082 L245.393657,40.1171577 C242.831016,41.6986224 240.486895,42.489355 238.361295,42.489355 C237.050178,42.489355 236.042005,42.269151 235.336782,41.8287431 C234.63156,41.3883351 234.139891,40.607612 233.861775,39.4865735 C231.060749,41.4884278 228.249793,42.489355 225.428902,42.489355 C223.422494,42.489355 221.699166,41.8087245 220.258924,40.4474635 C218.818681,39.0862028 218.098559,37.4546917 218.098559,35.5529301 C218.098559,33.1306866 218.813714,31.2189159 220.244024,29.8176179 C221.674334,28.41632 224.177379,27.1951889 227.753157,26.1542248 L233.682987,24.4126116 L233.682987,23.1214158 C233.682987,20.3788755 232.034155,19.0076054 228.736496,19.0076054 C227.047934,19.0076054 225.369305,19.3979669 223.700609,20.1786901 C222.031912,20.9594133 220.512208,22.1104793 219.141494,23.6318885 L219.141494,16.995742 C222.180904,14.5734984 225.786479,13.3623767 229.958219,13.3623767 Z M225.488498,34.4419011 C225.488498,35.4628468 225.811311,36.2836069 226.456938,36.9041819 C227.102564,37.5247566 227.902147,37.8350439 228.855687,37.8350439 C230.464787,37.8350439 232.073887,37.0943579 233.682987,35.6129858 L233.682987,28.2261438 C231.636848,28.9267929 230.032713,29.5874046 228.870587,30.2079795 C227.708458,30.8285543 226.854245,31.4591384 226.307947,32.0997317 C225.761647,32.7403251 225.488498,33.5210482 225.488498,34.4419011 Z" id="Shape"></path>
                    <path d="M266.854277,13.3623767 C267.827683,13.3623767 268.786192,13.5825806 269.729799,14.0229885 C270.673406,14.4633964 271.770971,15.2040825 273.022493,16.2450467 L270.400257,22.7010263 C268.274656,21.0995429 266.56623,20.2988014 265.274976,20.2988014 C264.142647,20.2988014 263.025217,20.7241954 261.922685,21.5749833 C260.820153,22.4257714 259.936142,23.5518144 259.270651,24.9531123 C258.605158,26.3544102 258.272413,27.7557081 258.272413,29.157006 L258.272413,41.9488543 L250.94207,41.9488543 L250.94207,13.9028773 L258.272413,13.9028773 L258.272413,21.0494968 L258.391606,21.0494968 C259.72259,18.3469935 261.063506,16.3901811 262.414353,15.1790593 C263.765204,13.9679375 265.245179,13.3623767 266.854277,13.3623767 Z" id="Path"></path>
                    <path d="M295.555847,41.348298 C293.410382,42.1090026 291.334444,42.489355 289.328036,42.489355 C286.805126,42.489355 284.456039,41.8737847 282.280774,40.6426444 C280.105512,39.4115041 278.397085,37.7099279 277.155495,35.5379162 C275.913905,33.3659045 275.293111,30.9686841 275.293111,28.3462551 C275.293111,25.4035296 275.899008,22.8411561 277.110798,20.659135 C278.322589,18.477114 280.040948,16.8055658 282.265877,15.6444904 C284.490806,14.483415 287.063378,13.9028773 289.983595,13.9028773 L302.856393,13.9028773 L302.856393,56.091954 L295.555847,56.091954 L295.555847,41.348298 Z M291.711888,19.5781338 C285.772125,19.5781338 282.802242,22.5909244 282.802242,28.6165054 C282.802242,31.1388417 283.532297,33.1607144 284.992406,34.6821236 C286.452516,36.2035328 288.404294,36.9642374 290.847742,36.9642374 C292.476707,36.9642374 294.046076,36.5738758 295.555847,35.7931526 L295.555847,19.5781338 L291.711888,19.5781338 Z" id="Shape"></path>
                    <path d="M318.834156,13.9028773 L318.834156,31.258953 C318.834156,33.0806403 319.286095,34.4669243 320.189972,35.4178049 C321.093848,36.3686857 322.290741,36.8441261 323.780647,36.8441261 C325.012303,36.8441261 326.194297,36.4637737 327.326626,35.7030693 C328.458957,34.9423645 329.372767,33.8713727 330.068055,32.4900933 L330.068055,13.9028773 L337.398398,13.9028773 L337.398398,41.9488543 L330.068055,41.9488543 L330.068055,38.1353222 C327.425954,41.0380105 324.565332,42.489355 321.486191,42.489355 C318.506376,42.489355 316.102659,41.5084464 314.275041,39.5466293 C312.44742,37.5848121 311.53361,35.0224388 311.53361,31.8595092 L311.53361,13.9028773 L318.834156,13.9028773 Z" id="Path"></path>
                    <path d="M358.710029,13.3623767 C362.802308,13.3623767 366.040372,14.6836004 368.424224,17.3260479 C370.808076,19.9684953 372,23.6218793 372,28.2861996 L372,29.3972286 L352.303428,29.3972286 C352.601409,31.8995463 353.530119,33.826331 355.089555,35.1775824 C356.648991,36.5288342 358.789491,37.2044599 361.511055,37.2044599 C363.259211,37.2044599 364.942808,36.8991772 366.56184,36.2886116 C368.180873,35.6780461 369.854535,34.7521885 371.582826,33.5110388 L371.582826,39.0061286 C368.324896,41.3282794 364.371676,42.489355 359.723166,42.489355 C355.332906,42.489355 351.747196,41.1581218 348.966037,38.4956558 C346.184878,35.8331898 344.794297,32.2899079 344.794297,27.8658102 C344.794297,23.6018607 346.080583,20.1186346 348.653157,17.4161313 C351.225729,14.7136282 354.57802,13.3623767 358.710029,13.3623767 Z M365.11663,24.9230845 C364.917976,22.8811933 364.302147,21.2847144 363.269144,20.1336485 C362.236143,18.9825823 360.815765,18.4070492 359.00801,18.4070492 C357.160526,18.4070492 355.675584,18.957559 354.553187,20.0585788 C353.430792,21.1595987 352.720603,22.7811006 352.422622,24.9230845 L365.11663,24.9230845 Z" id="Shape"></path>
                </g>
                <g id="designs-limited" transform="translate(0, 283.9655)" fill-rule="nonzero">
                    <path d="M0,20.769898 L0,0.264584687 L6.98762521,0.264584687 C9.80641245,0.264584687 12.036716,0.683510444 13.678536,1.52136195 C15.3203559,2.35921347 16.6258994,3.59149215 17.5951666,5.21819801 C18.5644339,6.84490387 19.0490675,8.61860122 19.0490675,10.53929 C19.0490675,11.9112107 18.7820245,13.2243346 18.2479385,14.4786621 C17.7138524,15.7329895 16.9522854,16.8354257 15.9632372,17.7859707 C14.9544081,18.7659139 13.782386,19.5057711 12.447171,20.0055422 C11.665823,20.3093246 10.9487631,20.5126628 10.2959913,20.6155569 C9.64321948,20.7184509 8.39701882,20.769898 6.55738926,20.769898 L0,20.769898 Z M6.67607504,2.88103326 L2.96714447,2.88103326 L2.96714447,18.1534494 L6.76508938,18.1534494 C8.2486616,18.1534494 9.40090269,18.0530052 10.2218127,17.8521168 C11.0427226,17.6512284 11.7276384,17.3964432 12.2765602,17.0877611 C12.825482,16.779079 13.3274239,16.3993509 13.782386,15.948577 C15.2461773,14.4786621 15.978073,12.6216696 15.978073,10.3775994 C15.978073,8.17272702 15.2263964,6.37453108 13.7230431,4.98301162 C13.1691762,4.46364167 12.5337127,4.03736635 11.8166528,3.70418563 C11.0995929,3.37100491 10.4196223,3.15051768 9.77674098,3.04272391 C9.13385971,2.93493016 8.10030438,2.88103326 6.67607504,2.88103326 Z" id="Shape"></path>
                    <polygon id="Path" points="32.5820155 0.264584687 44.3319076 0.264584687 44.3319076 2.88103326 35.5491601 2.88103326 35.5491601 9.14287088 44.0351932 9.14287088 44.0351932 11.7740186 35.5491601 11.7740186 35.5491601 18.1534494 44.6137864 18.1534494 44.6137864 20.769898 32.5820155 20.769898"></polygon>
                    <path d="M62.7309725,12.1855947 L60.4759428,10.833273 C59.0616038,9.98072237 58.0552474,9.14042101 57.4568733,8.31236895 C56.8584993,7.48431686 56.5593122,6.53132202 56.5593122,5.4533844 C56.5593122,3.83647797 57.1255421,2.52335396 58.2580023,1.51401238 C59.3904625,0.504670794 60.8616715,0 62.6716298,0 C64.402464,0 65.9898862,0.48017221 67.4338966,1.44051664 L67.4338966,4.77722354 C65.9404339,3.35630576 64.3332306,2.64584687 62.6122867,2.64584687 C61.6430196,2.64584687 60.8468359,2.86878397 60.2237355,3.31465817 C59.6006352,3.76053238 59.289085,4.33134933 59.289085,5.02710907 C59.289085,5.64447334 59.516566,6.22263988 59.9715283,6.76160868 C60.4264905,7.3005775 61.1633313,7.8640449 62.1820508,8.45201086 L64.4519164,9.77493433 C66.9838796,11.2644481 68.2498613,13.1655381 68.2498613,15.4782042 C68.2498613,17.1245089 67.6935217,18.4621315 66.5808425,19.4910721 C65.4681634,20.5200125 64.0216805,21.0344828 62.2413939,21.0344828 C60.194064,21.0344828 58.3297082,20.4122186 56.6483264,19.1676907 L56.6483264,15.4341067 C58.2505845,17.4429905 60.1050498,18.4474324 62.2117223,18.4474324 C63.1414276,18.4474324 63.9153578,18.1901973 64.5335128,17.675727 C65.1516679,17.1612568 65.4607456,16.5169441 65.4607456,15.7427889 C65.4607456,14.4884615 64.5508211,13.3027302 62.7309725,12.1855947 Z" id="Path"></path>
                    <polygon id="Path" points="81.3674091 0.264584687 84.3345536 0.264584687 84.3345536 20.7992962 81.3674091 20.7992962"></polygon>
                    <path d="M109.958615,10.6862815 L116.916569,10.6862815 L116.916569,19.3881779 C114.364825,20.4857145 111.832862,21.0344828 109.320679,21.0344828 C105.888682,21.0344828 103.146546,20.0422901 101.094271,18.057905 C99.0419963,16.0735198 98.0158594,13.6261114 98.0158594,10.7156799 C98.0158594,7.64845737 99.0790856,5.0957051 101.205539,3.05742306 C103.331992,1.01914102 105.997477,0 109.201993,0 C110.369071,0 111.476804,0.124942769 112.525196,0.374828308 C113.573587,0.624713846 114.898911,1.08283733 116.501169,1.74919877 L116.501169,4.74782522 C114.028548,3.32690746 111.575709,2.61644857 109.142651,2.61644857 C106.877731,2.61644857 104.968868,3.38080434 103.416062,4.90951587 C101.863256,6.4382274 101.086853,8.31481879 101.086853,10.53929 C101.086853,12.8715551 101.863256,14.7775448 103.416062,16.2572592 C104.968868,17.7369735 106.966745,18.4768307 109.409694,18.4768307 C110.596552,18.4768307 112.015836,18.2073463 113.667546,17.6683775 L113.949425,17.5801826 L113.949425,13.3027302 L109.958615,13.3027302 L109.958615,10.6862815 Z" id="Path"></path>
                    <polygon id="Path" points="147.54027 0.264584687 150.359057 0.264584687 150.359057 20.7992962 147.807313 20.7992962 133.950748 4.99771077 133.950748 20.7992962 131.161632 20.7992962 131.161632 0.264584687 133.565019 0.264584687 147.54027 16.1984625"></polygon>
                    <path d="M169.752115,12.1855947 L167.497085,10.833273 C166.082746,9.98072237 165.07639,9.14042101 164.478016,8.31236895 C163.879642,7.48431686 163.580455,6.53132202 163.580455,5.4533844 C163.580455,3.83647797 164.146684,2.52335396 165.279145,1.51401238 C166.411605,0.504670794 167.882814,0 169.692772,0 C171.423606,0 173.011029,0.48017221 174.455039,1.44051664 L174.455039,4.77722354 C172.961576,3.35630576 171.354373,2.64584687 169.63343,2.64584687 C168.664162,2.64584687 167.867978,2.86878397 167.244878,3.31465817 C166.621777,3.76053238 166.310227,4.33134933 166.310227,5.02710907 C166.310227,5.64447334 166.537709,6.22263988 166.99267,6.76160868 C167.447633,7.3005775 168.184474,7.8640449 169.203193,8.45201086 L171.473059,9.77493433 C174.005022,11.2644481 175.271004,13.1655381 175.271004,15.4782042 C175.271004,17.1245089 174.714664,18.4621315 173.601985,19.4910721 C172.489306,20.5200125 171.042823,21.0344828 169.262536,21.0344828 C167.215206,21.0344828 165.35085,20.4122186 163.669469,19.1676907 L163.669469,15.4341067 C165.271727,17.4429905 167.126192,18.4474324 169.232865,18.4474324 C170.16257,18.4474324 170.9365,18.1901973 171.554655,17.675727 C172.17281,17.1612568 172.481888,16.5169441 172.481888,15.7427889 C172.481888,14.4884615 171.571963,13.3027302 169.752115,12.1855947 Z" id="Path"></path>
                    <polygon id="Path" points="206.624423 0.264584687 209.591567 0.264584687 209.591567 18.1240511 218.923237 18.1240511 218.923237 20.7992962 206.624423 20.7992962"></polygon>
                    <polygon id="Path" points="231.373178 0.264584687 234.340323 0.264584687 234.340323 20.7992962 231.373178 20.7992962"></polygon>
                    <polygon id="Path" points="265.260737 0.264584687 268.020182 0.264584687 268.020182 20.7992962 265.038202 20.7992962 265.038202 4.82132097 258.658841 12.7588616 258.10992 12.7588616 251.671217 4.82132097 251.671217 20.7992962 248.704071 20.7992962 248.704071 0.264584687 251.493187 0.264584687 258.391797 8.70189639"></polygon>
                    <polygon id="Path" points="282.339424 0.264584687 285.306566 0.264584687 285.306566 20.7992962 282.339424 20.7992962"></polygon>
                    <polygon id="Path" points="297.964207 0.235186389 315.277494 0.235186389 315.277494 2.85163497 308.052499 2.85163497 308.052499 20.7992962 305.070519 20.7992962 305.070519 2.85163497 297.964207 2.85163497"></polygon>
                    <polygon id="Path" points="327.905464 0.264584687 339.655356 0.264584687 339.655356 2.88103326 330.872608 2.88103326 330.872608 9.14287088 339.358643 9.14287088 339.358643 11.7740186 330.872608 11.7740186 330.872608 18.1534494 339.937236 18.1534494 339.937236 20.769898 327.905464 20.769898"></polygon>
                    <path d="M352.950932,20.769898 L352.950932,0.264584687 L359.938558,0.264584687 C362.757345,0.264584687 364.987649,0.683510444 366.629469,1.52136195 C368.271289,2.35921347 369.576832,3.59149215 370.546099,5.21819801 C371.515368,6.84490387 372,8.61860122 372,10.53929 C372,11.9112107 371.732957,13.2243346 371.198872,14.4786621 C370.664785,15.7329895 369.903219,16.8354257 368.91417,17.7859707 C367.90534,18.7659139 366.733319,19.5057711 365.398105,20.0055422 C364.616756,20.3093246 363.899696,20.5126628 363.246924,20.6155569 C362.594153,20.7184509 361.347952,20.769898 359.508323,20.769898 L352.950932,20.769898 Z M359.627007,2.88103326 L355.918078,2.88103326 L355.918078,18.1534494 L359.716023,18.1534494 C361.199594,18.1534494 362.351835,18.0530052 363.172746,17.8521168 C363.993655,17.6512284 364.678571,17.3964432 365.227494,17.0877611 C365.776415,16.779079 366.278356,16.3993509 366.733319,15.948577 C368.197111,14.4786621 368.929006,12.6216696 368.929006,10.3775994 C368.929006,8.17272702 368.17733,6.37453108 366.673977,4.98301162 C366.120109,4.46364167 365.484646,4.03736635 364.767587,3.70418563 C364.050525,3.37100491 363.370556,3.15051768 362.727675,3.04272391 C362.084793,2.93493016 361.051238,2.88103326 359.627007,2.88103326 Z" id="Shape"></path>
                </g>
                <g id="Group">
                    <path d="M231.023026,23.089845 C223.803998,24.8347255 216.584967,26.5795946 209.951692,28.2379652 C197.944041,31.2399706 187.855836,33.9585305 171.840896,37.6929022 C165.761175,39.1105751 158.827307,40.6746442 158.948331,45.2291963 C159.006964,47.3473516 160.5902,50.1122999 162.575319,51.1863637 C165.404756,52.7172514 169.050639,50.8130302 172.243989,49.1554709 C175.141306,47.6515715 177.666105,46.3507214 180.303904,45.2056892 C189.585016,41.1768854 200.265058,39.0770905 210.67581,36.6731883 C225.899517,33.1579466 240.547388,28.9924195 255.495775,25.7772988 C267.571999,23.1799269 279.844352,21.202829 292.187217,19.3247669 C301.844362,17.8553578 311.544673,16.4465749 321.145855,16.0451282 C324.971201,15.8851825 328.78081,15.8851428 332.736913,15.3710418 C339.117453,14.5418811 345.879055,12.3755247 351.462078,15.2587868 C353.78025,16.4559691 355.895228,18.5237369 358.372184,18.8545869 C361.166756,19.2278613 364.422089,17.3902158 366.174223,14.8091896 C367.513708,12.8360261 367.97466,10.4284005 367.511445,8.17941364 C367.022697,5.80646194 365.505094,3.61012 363.610428,2.22372027 C360.048212,-0.382888771 355.153122,-0.126447115 350.458828,0.20118434 C339.586287,0.960018069 329.790896,2.10074364 319.834435,3.63110153 C304.185201,6.03646689 288.138052,9.40439884 272.313544,13.0541538 C258.435886,16.2548887 244.729456,19.672368 231.023026,23.089845 Z" id="Path"></path>
                    <path d="M147.741648,48.4469911 C154.631061,53.6164689 160.900763,59.9558891 161.770197,66.896132 C162.535342,73.003895 159.118041,79.5769879 155.548333,86.2762856 L155.060989,87.1905766 C151.402833,94.056272 147.776898,101.037956 150.91037,107.705474 C153.184841,112.545181 159.020692,117.219361 157.261156,121.486988 C156.736288,122.760018 155.535565,123.996871 154.223563,124.827941 C152.105983,126.169294 149.698522,126.453573 147.247747,126.665516 L146.429556,126.734836 C145.473918,126.815735 144.515873,126.902241 143.569921,127.052271 C137.215012,128.060175 131.405939,131.935001 127.33051,136.902767 C124.585787,140.248464 122.627404,144.089892 120.901688,148.024461 C118.44538,153.624757 116.460445,159.41375 113.838206,164.907433 C111.413591,169.987087 108.444111,174.814266 105.345186,179.525588 C103.667858,182.075644 101.952606,184.591758 99.8408743,186.824548 C97.8714521,188.906869 95.5571868,190.742765 93.0400687,191.93167 C84.5961158,195.919983 73.8693733,192.627437 63.326724,189.046374 L61.9223449,188.567804 C49.530459,184.33617 37.5460269,180.135407 29.9993594,187.389372 C28.1718843,189.145967 26.6046389,191.574265 24.3701528,193.281293 C18.7494875,197.575179 8.90697399,197.305352 3.97860089,192.57223 C-2.55567632,186.296828 -0.451509685,172.175514 6.01561052,165.357802 C9.39571145,161.794461 13.9676524,160.226265 17.6969003,157.32098 C20.3936067,155.2201 22.6496628,152.420047 24.1644045,149.331994 C26.1235908,145.337869 26.8426211,140.861946 27.4897811,136.419269 C28.2279427,131.351873 28.8726002,126.32773 29.9931382,121.412848 C31.3297653,115.55016 33.3435118,109.842937 32.9397399,103.505865 C32.686786,99.5358312 31.4850182,95.3185981 28.9131335,92.8843357 C26.1613807,90.2798289 21.8411675,89.7164034 17.8787271,87.9737287 C11.8169623,85.307774 6.59249539,79.8820159 6.51453981,73.310348 C6.4527896,68.1047389 9.62031335,62.1801068 14.1164743,60.7177447 C15.9977824,60.105855 18.1117081,60.2752186 20.2256258,60.4443135 C23.0006366,62.0047501 25.7755584,63.5654724 28.0989586,63.0453907 C30.6725589,62.4693027 32.6921557,59.3401299 35.0674585,57.021281 C37.4973327,54.6491581 40.2994455,53.1250203 43.2468734,52.3732459 C47.6362635,51.2536821 52.3479332,51.8470643 57.2265283,52.5229 L58.0881851,52.643489 C62.1130078,53.2153019 66.160204,53.9495421 68.9600653,56.3382853 C71.1164397,58.1780278 72.5329388,60.9991632 74.849225,63.0186712 C76.2223291,64.2158445 77.911634,65.1313117 79.5335339,65.4175004 C83.8528618,66.1796575 87.6941355,62.4788091 91.416076,58.6948013 L92.1758315,57.9210282 C93.1026653,56.9772815 94.0235695,56.0470014 94.944149,55.1986231 C97.6991686,52.6596801 100.45128,50.8542714 103.334695,48.8856184 C109.078224,44.9642204 115.34273,40.3951127 121.881305,39.2764018 C130.477782,37.8055958 139.547994,42.2988745 147.741648,48.4469911 Z M92.2220446,87.3273671 C89.5930551,86.0424134 85.9034866,85.4492577 83.9634461,86.8483209 C82.0075477,88.25882 81.8298959,91.6943149 81.5834071,94.912192 C80.7058173,106.369015 78.955639,115.067277 76.6227649,124.447276 C75.2594222,129.928994 73.697071,135.643545 72.1347091,141.358095 C68.945841,150.157527 65.7566291,158.956867 68.5909847,160.412673 C71.2742818,161.790891 79.3561977,156.587471 84.4177759,151.361918 C94.0218143,141.446746 92.7517979,131.451886 95.0552214,118.231415 C95.2605003,117.053219 95.4941601,115.849406 95.738695,114.632101 L95.886581,113.900196 C95.9113994,113.777974 95.9362917,113.655642 95.9612401,113.533211 L96.1868218,112.429001 C96.287335,111.937349 96.3879077,111.444704 96.4874194,110.95184 L96.6357514,110.212477 C96.7584648,109.596367 96.8786453,108.980522 96.9941045,108.366459 L97.1302495,107.630535 C98.7111668,98.934516 99.1636087,90.7199561 92.2220446,87.3273671 Z" id="Combined-Shape"></path>
                    <path d="M318.59418,115.152512 C319.98402,112.366224 321.373859,109.579937 321.837139,105.400506 C323.226979,100.292312 323.690258,93.3265935 324.616818,92.397831 C326.006658,91.4690686 328.323057,102.614218 332.492575,109.579937 C336.662094,116.545655 342.684732,119.796324 347.78081,119.331943 C358.436247,118.40318 365.848724,101.685456 368.628403,88.2183999 C371.871362,73.3582003 369.554963,62.2130506 370.944802,47.352851 C371.871362,38.9939887 373.724481,29.2419827 368.165123,24.1337891 C366.312004,22.7406454 363.995605,21.8118829 361.679205,21.3475017 C358.899526,20.8831204 356.119847,21.8118829 353.340168,22.7406454 C349.63393,24.5981703 345.464411,26.4556953 344.537851,30.1707452 C344.074571,32.0282701 344.074571,34.3501763 345.001131,36.2077013 C346.390971,38.5296075 348.70737,40.3871324 349.63393,42.2446574 C351.487049,45.495326 351.023769,50.1391384 350.560489,53.8541883 C349.63393,59.8911444 349.63393,64.0705755 349.63393,71.5006753 C349.17065,79.3951564 348.70737,91.4690686 345.927691,90.5403061 C344.074571,90.0759248 341.294892,85.4321125 339.441773,81.2526813 C337.125374,76.1444877 335.735534,72.4294378 332.029296,69.6431504 C328.786337,67.3212442 323.690258,65.9281005 319.52074,67.3212442 C314.887941,68.7143879 311.644983,73.3582003 309.791863,77.5376314 C307.938744,82.1814438 307.475464,85.8964937 307.012184,91.4690686 C306.085624,96.1128809 305.159065,102.149837 302.842666,102.614218 C300.526266,103.542981 296.356748,98.4347871 292.187229,95.6484997 C284.311472,89.6115436 275.509155,91.4690686 267.633398,95.6484997 C260.22092,99.8279308 254.198282,105.864887 251.418603,112.830605 C250.028764,115.616893 249.565484,117.938799 248.175644,120.725087 C247.249084,123.511374 244.932685,127.226424 243.079566,128.155186 C238.446767,130.012711 233.350689,121.189468 228.254611,115.616893 C223.158533,109.579937 218.062454,106.793649 211.576537,105.864887 C209.260137,105.400506 206.480458,104.936124 203.700779,105.400506 C200.9211,105.864887 198.604701,107.258031 196.288302,108.186793 C191.192224,110.973081 187.022705,115.152512 182.853186,119.796324 C176.367269,127.226424 170.344631,135.585286 161.542314,138.835955 C157.836075,140.229099 153.203277,140.229099 149.033758,143.015386 C146.254079,144.872911 143.4744,147.659198 143.93768,149.981105 C143.93768,152.767392 147.643918,155.089298 150.886877,156.482442 C153.666556,157.411204 155.982956,157.411204 158.762635,157.411204 C160.615754,156.946823 162.005594,156.946823 166.638392,155.089298 C168.491511,154.160536 173.12431,152.303011 177.293828,149.516723 C181.926627,146.266055 186.096145,142.551005 190.265664,137.442811 C195.825022,130.941474 201.84766,122.11823 206.943738,123.046993 C211.113257,123.511374 214.819496,130.012711 218.525734,134.656524 C222.231973,139.300336 226.401492,142.086623 231.03429,145.337292 C233.813969,146.730436 236.593648,148.12358 239.373327,149.052342 C245.395965,149.981105 251.881883,146.266055 256.977961,140.229099 C266.243558,129.083949 269.949797,109.579937 277.362274,109.579937 C282.921632,110.044318 289.87083,119.331943 297.746587,124.440136 C300.989546,126.297661 304.232505,127.690805 307.012184,127.226424 C311.644983,126.762043 315.351221,120.725087 318.59418,115.152512 Z" id="SPLINE"></path>
                </g>
            </g>
        </g>
    </g>
</svg>