<?xml version="1.0" encoding="UTF-8"?>
<svg width="372px" height="197px" viewBox="0 0 372 197" version="1.1" xmlns="http://www.w3.org/2000/svg" xmlns:xlink="http://www.w3.org/1999/xlink">
    <title>bmd-mark-final-light</title>
    <g id="logo" stroke="none" stroke-width="1" fill="none" fill-rule="evenodd">
        <g id="light" transform="translate(-33, -34)" fill="#FEFEFE">
            <g id="bmd-mark-final-light" transform="translate(33, 34)">
                <path d="M231.023026,23.089845 C223.803998,24.8347255 216.584967,26.5795946 209.951692,28.2379652 C197.944041,31.2399706 187.855836,33.9585305 171.840896,37.6929022 C165.761175,39.1105751 158.827307,40.6746442 158.948331,45.2291963 C159.006964,47.3473516 160.5902,50.1122999 162.575319,51.1863637 C165.404756,52.7172514 169.050639,50.8130302 172.243989,49.1554709 C175.141306,47.6515715 177.666105,46.3507214 180.303904,45.2056892 C189.585016,41.1768854 200.265058,39.0770905 210.67581,36.6731883 C225.899517,33.1579466 240.547388,28.9924195 255.495775,25.7772988 C267.571999,23.1799269 279.844352,21.202829 292.187217,19.3247669 C301.844362,17.8553578 311.544673,16.4465749 321.145855,16.0451282 C324.971201,15.8851825 328.78081,15.8851428 332.736913,15.3710418 C339.117453,14.5418811 345.879055,12.3755247 351.462078,15.2587868 C353.78025,16.4559691 355.895228,18.5237369 358.372184,18.8545869 C361.166756,19.2278613 364.422089,17.3902158 366.174223,14.8091896 C367.513708,12.8360261 367.97466,10.4284005 367.511445,8.17941364 C367.022697,5.80646194 365.505094,3.61012 363.610428,2.22372027 C360.048212,-0.382888771 355.153122,-0.126447115 350.458828,0.20118434 C339.586287,0.960018069 329.790896,2.10074364 319.834435,3.63110153 C304.185201,6.03646689 288.138052,9.40439884 272.313544,13.0541538 C258.435886,16.2548887 244.729456,19.672368 231.023026,23.089845 Z" id="Path"></path>
                <path d="M147.741648,48.4469911 C154.631061,53.6164689 160.900763,59.9558891 161.770197,66.896132 C162.535342,73.003895 159.118041,79.5769879 155.548333,86.2762856 L155.060989,87.1905766 C151.402833,94.056272 147.776898,101.037956 150.91037,107.705474 C153.184841,112.545181 159.020692,117.219361 157.261156,121.486988 C156.736288,122.760018 155.535565,123.996871 154.223563,124.827941 C152.105983,126.169294 149.698522,126.453573 147.247747,126.665516 L146.429556,126.734836 C145.473918,126.815735 144.515873,126.902241 143.569921,127.052271 C137.215012,128.060175 131.405939,131.935001 127.33051,136.902767 C124.585787,140.248464 122.627404,144.089892 120.901688,148.024461 C118.44538,153.624757 116.460445,159.41375 113.838206,164.907433 C111.413591,169.987087 108.444111,174.814266 105.345186,179.525588 C103.667858,182.075644 101.952606,184.591758 99.8408743,186.824548 C97.8714521,188.906869 95.5571868,190.742765 93.0400687,191.93167 C84.5961158,195.919983 73.8693733,192.627437 63.326724,189.046374 L61.9223449,188.567804 C49.530459,184.33617 37.5460269,180.135407 29.9993594,187.389372 C28.1718843,189.145967 26.6046389,191.574265 24.3701528,193.281293 C18.7494875,197.575179 8.90697399,197.305352 3.97860089,192.57223 C-2.55567632,186.296828 -0.451509685,172.175514 6.01561052,165.357802 C9.39571145,161.794461 13.9676524,160.226265 17.6969003,157.32098 C20.3936067,155.2201 22.6496628,152.420047 24.1644045,149.331994 C26.1235908,145.337869 26.8426211,140.861946 27.4897811,136.419269 C28.2279427,131.351873 28.8726002,126.32773 29.9931382,121.412848 C31.3297653,115.55016 33.3435118,109.842937 32.9397399,103.505865 C32.686786,99.5358312 31.4850182,95.3185981 28.9131335,92.8843357 C26.1613807,90.2798289 21.8411675,89.7164034 17.8787271,87.9737287 C11.8169623,85.307774 6.59249539,79.8820159 6.51453981,73.310348 C6.4527896,68.1047389 9.62031335,62.1801068 14.1164743,60.7177447 C15.9977824,60.105855 18.1117081,60.2752186 20.2256258,60.4443135 C23.0006366,62.0047501 25.7755584,63.5654724 28.0989586,63.0453907 C30.6725589,62.4693027 32.6921557,59.3401299 35.0674585,57.021281 C37.4973327,54.6491581 40.2994455,53.1250203 43.2468734,52.3732459 C47.6362635,51.2536821 52.3479332,51.8470643 57.2265283,52.5229 L58.0881851,52.643489 C62.1130078,53.2153019 66.160204,53.9495421 68.9600653,56.3382853 C71.1164397,58.1780278 72.5329388,60.9991632 74.849225,63.0186712 C76.2223291,64.2158445 77.911634,65.1313117 79.5335339,65.4175004 C83.8528618,66.1796575 87.6941355,62.4788091 91.416076,58.6948013 L92.1758315,57.9210282 C93.1026653,56.9772815 94.0235695,56.0470014 94.944149,55.1986231 C97.6991686,52.6596801 100.45128,50.8542714 103.334695,48.8856184 C109.078224,44.9642204 115.34273,40.3951127 121.881305,39.2764018 C130.477782,37.8055958 139.547994,42.2988745 147.741648,48.4469911 Z M92.2220446,87.3273671 C89.5930551,86.0424134 85.9034866,85.4492577 83.9634461,86.8483209 C82.0075477,88.25882 81.8298959,91.6943149 81.5834071,94.912192 C80.7058173,106.369015 78.955639,115.067277 76.6227649,124.447276 C75.2594222,129.928994 73.697071,135.643545 72.1347091,141.358095 C68.945841,150.157527 65.7566291,158.956867 68.5909847,160.412673 C71.2742818,161.790891 79.3561977,156.587471 84.4177759,151.361918 C94.0218143,141.446746 92.7517979,131.451886 95.0552214,118.231415 C95.2605003,117.053219 95.4941601,115.849406 95.738695,114.632101 L95.886581,113.900196 C95.9113994,113.777974 95.9362917,113.655642 95.9612401,113.533211 L96.1868218,112.429001 C96.287335,111.937349 96.3879077,111.444704 96.4874194,110.95184 L96.6357514,110.212477 C96.7584648,109.596367 96.8786453,108.980522 96.9941045,108.366459 L97.1302495,107.630535 C98.7111668,98.934516 99.1636087,90.7199561 92.2220446,87.3273671 Z" id="Combined-Shape"></path>
                <path d="M318.59418,115.152512 C319.98402,112.366224 321.373859,109.579937 321.837139,105.400506 C323.226979,100.292312 323.690258,93.3265935 324.616818,92.397831 C326.006658,91.4690686 328.323057,102.614218 332.492575,109.579937 C336.662094,116.545655 342.684732,119.796324 347.78081,119.331943 C358.436247,118.40318 365.848724,101.685456 368.628403,88.2183999 C371.871362,73.3582003 369.554963,62.2130506 370.944802,47.352851 C371.871362,38.9939887 373.724481,29.2419827 368.165123,24.1337891 C366.312004,22.7406454 363.995605,21.8118829 361.679205,21.3475017 C358.899526,20.8831204 356.119847,21.8118829 353.340168,22.7406454 C349.63393,24.5981703 345.464411,26.4556953 344.537851,30.1707452 C344.074571,32.0282701 344.074571,34.3501763 345.001131,36.2077013 C346.390971,38.5296075 348.70737,40.3871324 349.63393,42.2446574 C351.487049,45.495326 351.023769,50.1391384 350.560489,53.8541883 C349.63393,59.8911444 349.63393,64.0705755 349.63393,71.5006753 C349.17065,79.3951564 348.70737,91.4690686 345.927691,90.5403061 C344.074571,90.0759248 341.294892,85.4321125 339.441773,81.2526813 C337.125374,76.1444877 335.735534,72.4294378 332.029296,69.6431504 C328.786337,67.3212442 323.690258,65.9281005 319.52074,67.3212442 C314.887941,68.7143879 311.644983,73.3582003 309.791863,77.5376314 C307.938744,82.1814438 307.475464,85.8964937 307.012184,91.4690686 C306.085624,96.1128809 305.159065,102.149837 302.842666,102.614218 C300.526266,103.542981 296.356748,98.4347871 292.187229,95.6484997 C284.311472,89.6115436 275.509155,91.4690686 267.633398,95.6484997 C260.22092,99.8279308 254.198282,105.864887 251.418603,112.830605 C250.028764,115.616893 249.565484,117.938799 248.175644,120.725087 C247.249084,123.511374 244.932685,127.226424 243.079566,128.155186 C238.446767,130.012711 233.350689,121.189468 228.254611,115.616893 C223.158533,109.579937 218.062454,106.793649 211.576537,105.864887 C209.260137,105.400506 206.480458,104.936124 203.700779,105.400506 C200.9211,105.864887 198.604701,107.258031 196.288302,108.186793 C191.192224,110.973081 187.022705,115.152512 182.853186,119.796324 C176.367269,127.226424 170.344631,135.585286 161.542314,138.835955 C157.836075,140.229099 153.203277,140.229099 149.033758,143.015386 C146.254079,144.872911 143.4744,147.659198 143.93768,149.981105 C143.93768,152.767392 147.643918,155.089298 150.886877,156.482442 C153.666556,157.411204 155.982956,157.411204 158.762635,157.411204 C160.615754,156.946823 162.005594,156.946823 166.638392,155.089298 C168.491511,154.160536 173.12431,152.303011 177.293828,149.516723 C181.926627,146.266055 186.096145,142.551005 190.265664,137.442811 C195.825022,130.941474 201.84766,122.11823 206.943738,123.046993 C211.113257,123.511374 214.819496,130.012711 218.525734,134.656524 C222.231973,139.300336 226.401492,142.086623 231.03429,145.337292 C233.813969,146.730436 236.593648,148.12358 239.373327,149.052342 C245.395965,149.981105 251.881883,146.266055 256.977961,140.229099 C266.243558,129.083949 269.949797,109.579937 277.362274,109.579937 C282.921632,110.044318 289.87083,119.331943 297.746587,124.440136 C300.989546,126.297661 304.232505,127.690805 307.012184,127.226424 C311.644983,126.762043 315.351221,120.725087 318.59418,115.152512 Z" id="SPLINE"></path>
            </g>
        </g>
    </g>
</svg>