<?xml version="1.0" encoding="UTF-8"?>
<svg width="1200pt" height="1200pt" version="1.1" viewBox="0 0 1200 1200" xmlns="http://www.w3.org/2000/svg">
 <path d="m149.75 298.73c-5.1367 0-10.031 0.80469-14.52 2.293l434.11 338.18c18.277 14.242 43.031 14.23 61.309 0l434.12-338.18c-4.5-1.4766-9.3945-2.293-14.531-2.293zm915.03 600.25c-4.5 1.4766-9.3828 2.293-14.52 2.293h-900.51c-5.125 0-10.02-0.80469-14.52-2.293l343.7-267.76 60.086 46.801c71.965 56.062 131.41-7.3672 182.04-46.801zm-303.64-298.98 329.27-256.5v513.01zm-651.54 256.51v-513.01l329.27 256.5zm-22.176-583.5c16.164-14.641 38.242-23.723 62.34-23.723h900.49c47.52 0 89.605 36.145 89.605 83.461v534.5c0 47.328-42.086 83.473-89.605 83.473l-900.51-0.003906c-47.52 0-89.605-36.145-89.605-83.473l0.003906-534.5c0-23.363 10.453-44.508 27.277-59.734z" fill="#fdfdfd" fill-rule="evenodd"/>
</svg>
