<?xml version="1.0" encoding="UTF-8"?>
<svg width="1200pt" height="1200pt" version="1.1" viewBox="0 0 1200 1200" xmlns="http://www.w3.org/2000/svg">
 <path d="m933.8 1058.3c0 44.867-36.742 81.527-81.527 81.527h-504.54c-21.227 0-44.641-9.625-57.551-23.977l-0.046875 0.046875c-14.762-14.762-23.93-35.16-23.93-57.602v-916.65c0-22.355 9.1797-42.73 23.988-57.551l-0.046874-0.046875c14.762-14.762 35.16-23.93 57.602-23.93h504.54c44.879 0 81.527 36.66 81.527 81.527v916.66zm-358.52-42c0 37.871 49.453 33.938 49.453 2.6523-0.003906-37.871-49.453-33.938-49.453-2.6523zm-47.402-810.57h144.24c32.555 0 32.555-49.453 0-49.453h-144.24c-32.555 0-32.555 49.453 0 49.453zm347.03 875.21c5.8203-5.8203 9.4453-13.848 9.4453-22.645v-916.64c0-17.594-14.484-32.074-32.074-32.074h-504.54c-8.7969 0-16.824 3.625-22.645 9.4336l-0.046875-0.046875-9.3945 22.691v916.66c0 8.7969 3.625 16.824 9.4336 22.645l-0.046875 0.046876c5.8203 5.7969 13.859 9.3945 22.691 9.3945h504.54z" fill="#fdfdfd" fill-rule="evenodd"/>
</svg>
