<?xml version="1.0" encoding="UTF-8"?>
<svg width="1200pt" height="1200pt" version="1.1" viewBox="0 0 1200 1200" xmlns="http://www.w3.org/2000/svg">
 <path d="m600 263.33c173.39 0 260.87 210.64 138.11 333.42-122.76 122.76-333.42 35.305-333.42-138.11 0-107.84 87.457-195.31 195.31-195.31zm-19.621 866.94c9.6133 12.672 29.16 12.898 39.035 0.26562 145.55-186.3 378.84-451.52 378.84-671.89 0-109.97-44.594-209.53-116.65-281.61-250.33-250.32-679.86-71.965-679.86 281.61 0 220.25 233.11 485.43 378.64 671.63zm-11.242-93.312c10.824 13.523 21.289 26.594 30.863 38.652 136.4-171.66 348.8-423.23 348.8-616.97 0-309.77-376.27-465.82-595.45-246.65-63.109 63.109-102.16 150.32-102.16 246.65 0 180.88 186.59 414.12 317.94 578.32zm134-681.46c-91.621-91.621-249-26.438-249 103.14 0 129.6 157.39 194.76 249 103.14 56.965-56.953 56.965-149.33 0-206.28z" fill="#fdfdfd" fill-rule="evenodd"/>
</svg>
