<?xml version="1.0" encoding="UTF-8"?>
<svg width="40px" height="38px" viewBox="0 0 40 38" version="1.1" xmlns="http://www.w3.org/2000/svg" xmlns:xlink="http://www.w3.org/1999/xlink">
    <title>yellow-quote</title>
    <g id="content" stroke="none" stroke-width="1" fill="none" fill-rule="evenodd">
        <g id="yellow-quote" fill="#FFC857" fill-rule="nonzero">
            <path d="M0,38 L0,22.2759 L0.238095,18.5831 C0.952381,14.1358 2.57937,10.4033 5.11905,7.38558 C7.65873,4.2884 10.9524,2.06479 15,0.714731 L17.8571,0 L17.8571,6.55172 L16.6667,7.02821 C12.0635,9.25183 9.40476,13.1829 8.69048,18.8213 L8.57143,20.7273 L17.381,20.7273 L17.381,38 L0,38 Z M22.1429,38 L22.1429,22.2759 L22.381,18.5831 C23.0952,14.2153 24.7222,10.4828 27.2619,7.38558 C29.881,4.20899 33.1746,1.98537 37.1429,0.714731 L40,0 L40,6.55172 L38.8095,7.02821 C34.2063,9.093 31.5476,13.024 30.8333,18.8213 L30.7143,20.7273 L39.5238,20.7273 L39.5238,38 L22.1429,38 Z" id="Shape"></path>
        </g>
    </g>
</svg>